<svg xmlns="http://www.w3.org/2000/svg" width="1217" height="861" viewBox="0 0 1217 861">
<g>
<path d="M 609.00 473.05 C609.00,480.09 607.27,475.58 604.62,461.65 C599.26,433.52 591.13,406.99 579.27,379.00 L 572.71 363.50 L 564.05 363.50 C556.05,363.50 554.81,363.21 547.75,359.72 C535.25,353.54 526.44,342.23 514.32,316.81 C512.02,311.98 510.44,307.87 510.82,307.66 C513.22,306.36 528.16,304.81 534.71,305.19 C551.99,306.19 565.54,317.47 569.42,334.10 C570.37,338.15 571.42,339.45 578.18,344.87 C587.61,352.46 597.37,362.88 603.02,371.41 L 607.27 377.84 L 611.60 372.17 C613.98,369.05 619.93,362.10 624.81,356.73 L 633.69 346.96 L 633.22 337.17 C632.55,323.18 634.35,317.49 641.83,310.01 C646.39,305.45 648.90,303.85 654.51,301.91 C660.81,299.74 663.13,299.50 678.00,299.52 C693.09,299.53 710.85,301.56 714.23,303.64 C714.76,303.97 713.01,306.15 710.35,308.48 C707.68,310.81 701.29,318.85 696.14,326.35 C686.01,341.09 677.17,350.26 669.37,354.10 C665.45,356.03 662.86,356.51 656.10,356.56 L 647.70 356.63 L 642.32 367.36 C631.78,388.37 621.77,415.81 615.50,440.86 C611.94,455.09 609.00,469.65 609.00,473.05 ZM 595.49 574.75 C595.00,576.82 594.40,577.00 587.98,577.00 C584.14,577.00 581.00,576.82 581.00,576.59 C581.00,576.16 587.81,543.31 593.35,517.00 L 596.61 501.50 L 607.81 501.22 C616.39,501.00 619.00,501.23 619.01,502.22 C619.06,506.05 620.32,532.02 620.93,541.50 L 621.63 552.50 L 646.90 501.00 L 669.25 501.00 L 668.65 504.25 C668.32,506.04 664.78,523.14 660.79,542.25 L 653.53 577.00 L 646.20 577.00 C639.68,577.00 638.92,576.81 639.40,575.25 C639.91,573.58 643.89,557.05 649.46,533.50 C650.89,527.45 652.25,521.94 652.50,521.25 C652.74,520.56 652.61,520.01 652.22,520.02 C651.82,520.03 645.43,532.86 638.01,548.52 L 624.52 577.00 L 617.23 577.00 C612.27,577.00 609.81,576.60 609.55,575.75 C609.33,575.06 608.89,565.72 608.56,555.00 C607.97,535.60 606.94,517.71 606.45,518.23 C606.22,518.48 604.87,525.43 598.56,559.00 C597.16,566.42 595.78,573.51 595.49,574.75 ZM 681.79 572.50 L 679.60 577.00 L 662.84 577.00 L 664.80 573.75 C665.88,571.96 674.98,555.88 685.03,538.00 C695.08,520.12 703.92,504.49 704.67,503.25 C705.92,501.20 706.80,501.00 714.55,501.00 C720.50,501.00 723.17,501.38 723.43,502.25 C723.86,503.67 733.67,564.96 734.64,572.30 L 735.28 577.09 L 720.50 576.50 L 719.41 569.25 C718.82,565.26 717.99,561.66 717.58,561.25 C717.17,560.84 710.61,560.35 702.99,560.16 L 689.14 559.81 L 686.56 563.91 C685.13,566.16 682.99,570.03 681.79,572.50 ZM 833.05 565.47 L 830.71 577.00 L 822.85 577.00 C818.53,577.00 815.00,576.70 815.00,576.34 C815.00,575.76 827.63,514.88 829.80,505.00 L 830.57 501.50 L 838.28 501.21 C844.08,500.99 845.99,501.24 845.98,502.21 C845.97,502.92 844.65,509.80 843.06,517.50 C841.46,525.20 840.32,531.66 840.52,531.85 C840.72,532.05 848.44,525.19 857.69,516.62 L 874.50 501.02 L 884.98 501.01 L 895.45 501.00 L 892.98 503.40 C891.61,504.72 884.20,511.28 876.50,517.98 C868.80,524.68 862.37,530.52 862.20,530.97 C862.04,531.41 867.33,541.72 873.95,553.88 C880.58,566.03 886.00,576.21 886.00,576.49 C886.00,576.77 882.06,576.99 877.25,576.98 L 868.50 576.97 L 859.50 559.50 C854.55,549.88 850.12,542.02 849.66,542.01 C849.21,542.00 845.81,544.69 842.11,547.97 L 835.39 553.94 ZM 794.01 574.40 C789.03,577.18 787.57,577.49 778.51,577.72 C759.40,578.21 749.01,571.34 747.33,557.10 L 746.72 552.00 L 761.65 552.00 L 763.07 556.75 C764.84,562.64 768.83,565.00 777.00,565.00 C786.95,565.00 792.74,559.94 790.44,553.25 C789.67,551.00 787.03,549.29 775.84,543.78 C761.07,536.51 758.96,534.61 756.83,526.64 C754.41,517.60 759.24,507.69 768.27,503.16 C774.78,499.90 786.51,499.14 794.55,501.46 C802.31,503.70 809.09,510.34 810.88,517.45 C811.55,520.09 811.93,522.40 811.74,522.60 C811.54,522.79 808.20,523.25 804.31,523.61 L 797.24 524.26 L 796.05 520.65 C794.22,515.12 790.83,513.00 783.82,513.00 C776.77,513.00 772.48,514.95 771.57,518.57 C770.42,523.15 773.26,525.72 786.43,532.04 C795.09,536.21 799.76,539.10 802.25,541.86 C810.92,551.46 806.94,567.18 794.01,574.40 ZM 606.71 446.00 C606.99,446.83 608.71,441.88 610.54,435.00 C617.85,407.59 629.99,376.77 642.84,353.06 C646.23,346.80 648.84,341.51 648.65,341.31 C647.76,340.43 623.61,366.72 615.59,377.29 C610.71,383.73 606.57,389.00 606.40,389.00 C606.23,389.00 605.20,386.99 604.12,384.53 C601.36,378.30 596.86,372.00 589.66,364.29 C582.83,356.97 570.04,345.63 569.37,346.30 C569.13,346.54 571.04,350.28 573.60,354.61 C584.53,373.07 595.75,402.51 603.06,431.86 C604.79,438.81 606.44,445.17 606.71,446.00 ZM 651.67 350.27 C652.62,351.81 661.61,350.33 667.33,347.70 C670.17,346.39 674.62,343.33 677.22,340.91 C682.09,336.36 702.11,309.00 701.41,307.85 C700.46,306.32 683.64,304.77 672.94,305.23 C654.72,306.01 644.09,311.43 640.58,321.72 C639.07,326.14 638.33,341.00 639.61,341.00 C639.95,341.00 643.71,337.72 647.96,333.72 C656.43,325.75 674.26,311.00 675.43,311.00 C675.83,311.00 673.12,315.39 669.40,320.75 C659.30,335.33 650.99,349.17 651.67,350.27 ZM 556.00 357.06 C559.58,358.16 568.00,358.17 568.00,357.08 C568.00,354.42 556.23,339.23 545.60,328.18 C532.12,314.16 532.36,314.13 552.79,327.28 C557.90,330.57 562.26,333.07 562.48,332.85 C563.42,331.92 558.60,323.20 555.20,319.67 C548.47,312.69 545.08,311.50 531.83,311.50 C525.42,311.50 519.85,311.81 519.47,312.20 C518.69,312.97 528.52,331.93 533.35,338.99 C539.53,348.01 547.70,354.53 556.00,357.06 ZM 613.68 361.94 C606.10,364.80 596.04,360.83 592.62,353.62 C590.53,349.21 590.55,341.76 592.66,337.31 C595.58,331.16 604.29,327.08 611.60,328.45 C615.51,329.19 621.40,333.94 623.55,338.10 C625.40,341.67 625.42,349.30 623.59,352.80 C621.70,356.43 617.13,360.63 613.68,361.94 ZM 603.20 355.37 C607.73,357.65 611.83,356.72 615.75,352.52 C620.12,347.83 620.16,343.40 615.90,338.53 C613.21,335.48 612.19,335.00 608.33,335.00 C602.83,335.00 600.46,336.20 598.51,339.98 C595.47,345.86 597.48,352.48 603.20,355.37 ZM 694.78 547.45 C695.55,548.21 716.00,548.14 716.00,547.38 C716.00,546.59 713.17,526.63 712.42,522.12 C712.10,520.19 711.49,519.12 710.99,519.62 C709.04,521.59 694.27,546.94 694.78,547.45 Z" fill="rgb(19,52,104)"/>
<path d="M 711.54 307.38 C713.51,305.50 714.68,303.92 714.23,303.64 C713.72,303.33 712.89,303.01 711.78,302.71 L 715.40 303.33 L 713.15 300.41 C708.22,294.06 696.10,282.35 688.88,276.98 C673.87,265.83 652.69,256.93 634.03,253.94 C610.11,250.11 580.95,254.54 559.50,265.25 C543.53,273.22 525.28,288.33 513.99,302.91 L 510.58 307.31 L 516.04 306.41 C516.71,306.30 517.59,306.19 518.61,306.09 C514.87,306.56 511.80,307.13 510.82,307.66 C510.44,307.87 512.02,311.98 514.32,316.81 C514.46,317.10 514.60,317.40 514.74,317.69 C512.42,313.19 510.54,309.84 510.20,309.62 C508.91,308.83 499.43,327.58 496.11,337.50 C491.74,350.55 490.00,362.17 490.00,378.22 C490.00,400.54 493.92,416.19 502.51,428.15 C504.43,430.82 506.00,433.45 506.00,434.00 C506.00,434.55 503.75,435.00 501.01,435.00 C496.31,435.00 495.83,434.75 493.05,430.92 C485.72,420.80 477.22,399.66 473.38,382.00 C470.53,368.91 470.80,337.00 473.87,324.00 C483.26,284.27 505.48,252.88 539.18,231.73 C578.23,207.22 630.09,203.70 672.57,222.67 C689.37,230.17 702.47,239.27 716.06,252.87 C737.04,273.87 749.60,297.03 755.71,326.00 C758.24,338.02 758.26,371.00 755.73,382.69 C752.33,398.46 745.46,415.90 737.47,429.05 L 733.86 435.00 L 728.43 435.00 C725.44,435.00 723.00,434.76 723.00,434.47 C723.00,434.18 725.45,430.09 728.44,425.37 C732.67,418.70 734.33,414.88 735.91,408.15 C744.07,373.36 739.02,341.81 720.32,310.75 C718.41,307.59 716.28,305.00 715.57,305.00 C714.67,305.00 713.29,305.84 711.54,307.38 ZM 480.00 354.92 C480.00,357.90 480.25,360.08 480.56,359.78 C480.86,359.47 481.93,355.24 482.94,350.36 C492.35,304.67 525.69,266.32 569.58,250.69 C584.83,245.26 596.03,243.50 615.00,243.55 C630.31,243.59 633.90,243.93 643.72,246.24 C656.52,249.25 670.23,254.46 680.65,260.28 C711.97,277.78 736.84,310.19 744.88,344.00 L 745.05 344.73 C747.18,353.67 748.15,357.77 748.54,357.72 C748.86,357.67 748.76,354.64 748.58,349.04 L 748.56 348.50 C747.93,329.42 743.38,311.65 734.56,293.91 C728.06,280.83 720.70,270.70 709.50,259.45 C690.68,240.54 667.88,228.22 640.96,222.39 C629.02,219.80 599.82,219.76 588.50,222.32 C540.19,233.23 503.84,264.75 488.10,309.38 C483.16,323.37 480.01,341.10 480.00,354.92 ZM 698.42 300.58 C692.10,299.94 684.78,299.52 678.00,299.52 C673.44,299.51 670.07,299.53 667.39,299.62 C669.27,299.48 671.29,299.37 673.50,299.28 C682.42,298.94 688.38,299.16 698.42,300.58 ZM 538.91 305.64 C542.84,305.90 544.81,306.58 548.50,308.30 C550.67,309.31 552.73,310.53 554.65,311.92 C550.10,308.75 544.77,306.58 538.91,305.64 ZM 547.28 359.49 C538.25,354.91 531.72,348.35 524.19,335.57 C531.72,348.13 538.62,355.08 547.28,359.49 ZM 656.77 301.17 C656.06,301.39 655.31,301.63 654.51,301.91 C652.52,302.60 650.92,303.24 649.48,303.99 C651.65,302.78 654.01,301.86 656.77,301.17 ZM 710.63 308.23 C709.06,309.73 707.26,311.71 705.27,314.11 C707.39,311.52 709.21,309.48 710.35,308.48 C710.44,308.40 710.54,308.31 710.63,308.23 ZM 696.77 325.44 C696.56,325.74 696.35,326.05 696.13,326.36 C693.60,330.04 691.15,333.38 688.78,336.37 C691.15,333.38 693.61,330.04 696.14,326.35 C696.35,326.05 696.56,325.74 696.77,325.44 Z" fill="rgb(80,197,238)"/>
<path d="M 566.68 647.91 C558.62,651.81 548.77,649.70 544.04,643.06 C541.05,638.86 538.15,629.88 537.39,622.49 C536.49,613.72 536.48,613.72 528.91,614.94 C509.68,618.06 494.14,613.13 480.39,599.53 C474.53,593.74 472.38,590.65 468.19,582.00 C461.26,567.71 459.61,559.08 460.25,540.60 C460.65,529.01 461.20,525.08 463.34,518.50 C466.93,507.47 472.25,498.77 480.50,490.39 C508.67,461.78 553.29,471.82 570.53,510.65 C579.06,529.86 579.31,559.13 571.11,578.26 C568.47,584.41 561.79,594.22 556.11,600.31 L 551.62 605.12 L 552.86 609.81 C557.99,629.23 560.85,634.35 566.28,633.80 C570.36,633.39 573.03,629.53 573.84,622.89 C574.44,617.98 574.72,617.50 577.00,617.50 C579.45,617.50 579.49,617.64 579.14,624.00 C578.75,631.03 576.09,639.35 572.96,643.33 C571.88,644.70 569.05,646.76 566.68,647.91 ZM 489.58 588.50 L 492.36 594.50 L 493.06 586.71 C494.35,572.50 502.50,564.01 515.65,563.17 C529.34,562.30 538.52,569.33 544.49,585.25 C545.47,587.86 546.63,590.00 547.06,590.00 C548.26,590.00 551.66,580.27 553.38,571.90 C555.69,560.75 556.43,542.15 555.07,529.50 C552.37,504.26 545.88,491.51 532.35,484.85 C517.82,477.70 500.70,482.44 491.97,496.05 C485.71,505.81 483.40,514.48 482.01,533.43 C480.46,554.50 483.26,574.87 489.58,588.50 ZM 398.26 595.50 L 391.34 615.50 L 387.85 615.80 L 384.37 616.10 L 366.00 566.30 C355.89,538.91 345.48,510.65 342.85,503.50 C337.07,487.77 333.91,484.00 326.51,484.00 C322.02,484.00 322.00,483.98 322.00,480.50 L 322.00 477.00 L 376.00 477.00 L 376.00 484.00 L 368.72 484.00 C360.41,484.00 357.00,485.63 357.00,489.60 C357.00,491.72 361.53,504.88 372.47,534.50 C373.68,537.80 378.41,550.74 382.98,563.25 C387.54,575.76 391.56,586.00 391.90,586.00 C392.25,586.00 394.86,579.14 397.70,570.75 C400.55,562.36 407.18,542.84 412.44,527.36 C423.31,495.36 423.90,491.75 419.08,486.92 C416.44,484.28 415.51,484.00 409.58,484.00 L 403.00 484.00 L 403.00 477.00 L 450.00 477.00 L 450.00 480.50 C450.00,483.58 449.70,484.00 447.45,484.00 C442.33,484.00 436.86,488.28 433.50,494.92 C431.59,498.69 430.48,501.83 415.48,545.50 C409.82,562.00 402.07,584.50 398.26,595.50 ZM 888.00 609.00 L 888.00 617.00 L 581.00 617.00 L 581.00 609.00 ZM 509.52 607.71 C515.12,609.48 525.55,608.73 531.41,606.14 L 536.30 603.98 L 535.70 595.74 C534.98,585.66 532.91,579.53 528.78,575.27 C523.15,569.46 514.63,568.59 507.37,573.08 C503.46,575.49 499.00,583.97 499.01,588.95 C499.02,597.91 503.43,605.78 509.52,607.71 Z" fill="rgb(230,38,46)"/>
<path d="M 0.00 430.50 L 0.00 0.00 L 608.50 0.00 L 1217.00 0.00 L 1217.00 430.50 L 1217.00 861.00 L 608.50 861.00 L 0.00 861.00 L 0.00 430.50 ZM 566.68 647.91 C569.05,646.76 571.88,644.70 572.96,643.33 C576.09,639.35 578.75,631.03 579.14,624.00 C579.49,617.64 579.45,617.50 577.00,617.50 C574.72,617.50 574.44,617.98 573.84,622.89 C573.03,629.53 570.36,633.39 566.28,633.80 C560.85,634.35 557.99,629.23 552.86,609.81 L 551.62 605.12 L 556.11 600.31 C561.79,594.22 568.47,584.41 571.11,578.26 C579.31,559.13 579.06,529.86 570.53,510.65 C553.29,471.82 508.67,461.78 480.50,490.39 C472.25,498.77 466.93,507.47 463.34,518.50 C461.20,525.08 460.65,529.01 460.25,540.60 C459.61,559.08 461.26,567.71 468.19,582.00 C472.38,590.65 474.53,593.74 480.39,599.53 C494.14,613.13 509.68,618.06 528.91,614.94 C536.48,613.72 536.49,613.72 537.39,622.49 C538.15,629.88 541.05,638.86 544.04,643.06 C548.77,649.70 558.62,651.81 566.68,647.91 ZM 888.00 613.00 L 888.00 609.00 L 734.50 609.00 L 581.00 609.00 L 581.00 613.00 L 581.00 617.00 L 734.50 617.00 L 888.00 617.00 L 888.00 613.00 ZM 398.26 595.50 C402.07,584.50 409.82,562.00 415.48,545.50 C430.48,501.83 431.59,498.69 433.50,494.92 C436.86,488.28 442.33,484.00 447.45,484.00 C449.70,484.00 450.00,483.58 450.00,480.50 L 450.00 477.00 L 426.50 477.00 L 403.00 477.00 L 403.00 480.50 L 403.00 484.00 L 409.58 484.00 C415.51,484.00 416.44,484.28 419.08,486.92 C423.90,491.75 423.31,495.36 412.44,527.36 C407.18,542.84 400.55,562.36 397.70,570.75 C394.86,579.14 392.25,586.00 391.90,586.00 C391.56,586.00 387.54,575.76 382.98,563.25 C378.41,550.74 373.68,537.80 372.47,534.50 C361.53,504.88 357.00,491.72 357.00,489.60 C357.00,485.63 360.41,484.00 368.72,484.00 L 376.00 484.00 L 376.00 480.50 L 376.00 477.00 L 349.00 477.00 L 322.00 477.00 L 322.00 480.50 C322.00,483.98 322.02,484.00 326.51,484.00 C333.91,484.00 337.07,487.77 342.85,503.50 C345.48,510.65 355.89,538.91 366.00,566.30 L 384.37 616.10 L 387.85 615.80 L 391.34 615.50 L 398.26 595.50 ZM 794.01 574.40 C806.94,567.18 810.92,551.46 802.25,541.86 C799.76,539.10 795.09,536.21 786.43,532.04 C773.26,525.72 770.42,523.15 771.57,518.57 C772.48,514.95 776.77,513.00 783.82,513.00 C790.83,513.00 794.22,515.12 796.05,520.65 L 797.24 524.26 L 804.31 523.61 C808.20,523.25 811.54,522.79 811.74,522.60 C811.93,522.40 811.55,520.09 810.88,517.45 C809.09,510.34 802.31,503.70 794.55,501.46 C786.51,499.14 774.78,499.90 768.27,503.16 C759.24,507.69 754.41,517.60 756.83,526.64 C758.96,534.61 761.07,536.51 775.84,543.78 C787.03,549.29 789.67,551.00 790.44,553.25 C792.74,559.94 786.95,565.00 777.00,565.00 C768.83,565.00 764.84,562.64 763.07,556.75 L 761.65 552.00 L 754.18 552.00 L 746.72 552.00 L 747.33 557.10 C749.01,571.34 759.40,578.21 778.51,577.72 C787.57,577.49 789.03,577.18 794.01,574.40 ZM 595.49 574.75 C595.78,573.51 597.16,566.42 598.56,559.00 C604.87,525.43 606.22,518.48 606.45,518.23 C606.94,517.71 607.97,535.60 608.56,555.00 C608.89,565.72 609.33,575.06 609.55,575.75 C609.81,576.60 612.27,577.00 617.23,577.00 L 624.52 577.00 L 638.01 548.52 C645.43,532.86 651.82,520.03 652.22,520.02 C652.61,520.01 652.74,520.56 652.50,521.25 C652.25,521.94 650.89,527.45 649.46,533.50 C643.89,557.05 639.91,573.58 639.40,575.25 C638.92,576.81 639.68,577.00 646.20,577.00 L 653.53 577.00 L 660.79 542.25 C664.78,523.14 668.32,506.04 668.65,504.25 L 669.25 501.00 L 658.07 501.00 L 646.90 501.00 L 634.26 526.75 L 621.63 552.50 L 620.93 541.50 C620.32,532.02 619.06,506.05 619.01,502.22 C619.00,501.23 616.39,501.00 607.81,501.22 L 596.61 501.50 L 593.35 517.00 C587.81,543.31 581.00,576.16 581.00,576.59 C581.00,576.82 584.14,577.00 587.98,577.00 C594.40,577.00 595.00,576.82 595.49,574.75 ZM 681.79 572.50 C682.99,570.03 685.13,566.16 686.56,563.91 L 689.14 559.81 L 702.99 560.16 C710.61,560.35 717.17,560.84 717.58,561.25 C717.99,561.66 718.82,565.26 719.41,569.25 L 720.50 576.50 L 727.89 576.80 L 735.28 577.09 L 734.64 572.30 C733.67,564.96 723.86,503.67 723.43,502.25 C723.17,501.38 720.50,501.00 714.55,501.00 C706.80,501.00 705.92,501.20 704.67,503.25 C703.92,504.49 695.08,520.12 685.03,538.00 C674.98,555.88 665.88,571.96 664.80,573.75 L 662.84 577.00 L 671.22 577.00 L 679.60 577.00 L 681.79 572.50 ZM 833.05 565.47 L 835.39 553.94 L 842.11 547.97 C845.81,544.69 849.21,542.00 849.66,542.01 C850.12,542.02 854.55,549.88 859.50,559.50 L 868.50 576.97 L 877.25 576.98 C882.06,576.99 886.00,576.77 886.00,576.49 C886.00,576.21 880.58,566.03 873.95,553.88 C867.33,541.72 862.04,531.41 862.20,530.97 C862.37,530.52 868.80,524.68 876.50,517.98 C884.20,511.28 891.61,504.72 892.98,503.40 L 895.45 501.00 L 884.98 501.01 L 874.50 501.02 L 857.69 516.62 C848.44,525.19 840.72,532.05 840.52,531.85 C840.32,531.66 841.46,525.20 843.06,517.50 C844.65,509.80 845.97,502.92 845.98,502.21 C845.99,501.24 844.08,500.99 838.28,501.21 L 830.57 501.50 L 829.80 505.00 C827.63,514.88 815.00,575.76 815.00,576.34 C815.00,576.70 818.53,577.00 822.85,577.00 L 830.71 577.00 L 833.05 565.47 ZM 609.00 473.05 C609.00,469.65 611.94,455.09 615.50,440.86 C621.77,415.81 631.78,388.37 642.32,367.36 L 647.70 356.63 L 656.10 356.56 C662.86,356.51 665.45,356.03 669.37,354.10 C677.17,350.26 686.01,341.09 696.13,326.36 C704.97,313.49 712.70,305.00 715.57,305.00 C716.28,305.00 718.41,307.59 720.32,310.75 C739.02,341.81 744.07,373.36 735.91,408.15 C734.33,414.88 732.67,418.70 728.44,425.37 C725.45,430.09 723.00,434.18 723.00,434.47 C723.00,434.76 725.44,435.00 728.43,435.00 L 733.86 435.00 L 737.47 429.05 C745.46,415.90 752.33,398.46 755.73,382.69 C758.26,371.00 758.24,338.02 755.71,326.00 C749.60,297.03 737.04,273.87 716.06,252.87 C702.47,239.27 689.37,230.17 672.57,222.67 C630.09,203.70 578.23,207.22 539.18,231.73 C505.48,252.88 483.26,284.27 473.87,324.00 C470.80,337.00 470.53,368.91 473.38,382.00 C477.22,399.66 485.72,420.80 493.05,430.92 C495.83,434.75 496.31,435.00 501.01,435.00 C503.75,435.00 506.00,434.55 506.00,434.00 C506.00,433.45 504.43,430.82 502.51,428.15 C493.92,416.19 490.00,400.54 490.00,378.22 C490.00,362.17 491.74,350.55 496.11,337.50 C499.43,327.58 508.91,308.83 510.20,309.62 C510.65,309.90 513.65,315.42 516.86,321.88 C528.09,344.45 535.69,353.76 547.79,359.74 C554.81,363.21 556.06,363.50 564.05,363.50 L 572.71 363.50 L 579.27 379.00 C591.13,406.99 599.26,433.52 604.62,461.65 C607.27,475.58 609.00,480.09 609.00,473.05 ZM 509.52 607.71 C503.43,605.78 499.02,597.91 499.01,588.95 C499.00,583.97 503.46,575.49 507.37,573.08 C514.63,568.59 523.15,569.46 528.78,575.27 C532.91,579.53 534.98,585.66 535.70,595.74 L 536.30 603.98 L 531.41 606.14 C525.55,608.73 515.12,609.48 509.52,607.71 ZM 489.58 588.50 C483.26,574.87 480.46,554.50 482.01,533.43 C483.40,514.48 485.71,505.81 491.97,496.05 C500.70,482.44 517.82,477.70 532.35,484.85 C545.88,491.51 552.37,504.26 555.07,529.50 C556.43,542.15 555.69,560.75 553.38,571.90 C551.66,580.27 548.26,590.00 547.06,590.00 C546.63,590.00 545.47,587.86 544.49,585.25 C538.52,569.33 529.34,562.30 515.65,563.17 C502.50,564.01 494.35,572.50 493.06,586.71 L 492.36 594.50 L 489.58 588.50 ZM 694.78 547.45 C694.27,546.94 709.04,521.59 710.99,519.62 C711.49,519.12 712.10,520.19 712.42,522.12 C713.17,526.63 716.00,546.59 716.00,547.38 C716.00,548.14 695.55,548.21 694.78,547.45 ZM 606.71 446.00 C606.44,445.17 604.79,438.81 603.06,431.86 C595.75,402.51 584.53,373.07 573.60,354.61 C571.04,350.28 569.13,346.54 569.37,346.30 C570.04,345.63 582.83,356.97 589.66,364.29 C596.86,372.00 601.36,378.30 604.12,384.53 C605.20,386.99 606.23,389.00 606.40,389.00 C606.57,389.00 610.71,383.73 615.59,377.29 C623.61,366.72 647.76,340.43 648.65,341.31 C648.84,341.51 646.23,346.80 642.84,353.06 C629.99,376.77 617.85,407.59 610.54,435.00 C608.71,441.88 606.99,446.83 606.71,446.00 ZM 603.02 371.41 C597.37,362.88 587.61,352.46 578.18,344.87 C571.42,339.45 570.37,338.15 569.42,334.10 C566.78,322.80 558.99,313.20 548.50,308.30 C543.13,305.79 541.41,305.50 532.00,305.50 C526.22,305.50 519.04,305.91 516.04,306.41 L 510.58 307.31 L 513.99 302.91 C525.28,288.33 543.53,273.22 559.50,265.25 C580.95,254.54 610.11,250.11 634.03,253.94 C652.69,256.93 673.87,265.83 688.88,276.98 C696.10,282.35 708.22,294.06 713.15,300.41 L 715.40 303.33 L 711.45 302.65 C692.36,299.40 685.69,298.81 673.50,299.28 C656.11,299.96 649.72,302.13 641.82,310.02 C634.35,317.49 632.55,323.18 633.22,337.17 L 633.69 346.96 L 624.81 356.73 C619.93,362.10 613.98,369.05 611.60,372.17 L 607.27 377.84 L 603.02 371.41 ZM 613.68 361.94 C617.13,360.63 621.70,356.43 623.59,352.80 C625.42,349.30 625.40,341.67 623.55,338.10 C621.40,333.94 615.51,329.19 611.60,328.45 C604.29,327.08 595.58,331.16 592.66,337.31 C590.55,341.76 590.53,349.21 592.62,353.62 C596.04,360.83 606.10,364.80 613.68,361.94 ZM 480.00 354.92 C480.01,341.10 483.16,323.37 488.10,309.38 C503.84,264.75 540.19,233.23 588.50,222.32 C599.82,219.76 629.02,219.80 640.96,222.39 C667.88,228.22 690.68,240.54 709.50,259.45 C720.70,270.70 728.06,280.83 734.56,293.91 C743.38,311.65 747.93,329.42 748.56,348.50 C748.99,361.43 749.04,361.49 744.88,344.00 C736.84,310.19 711.97,277.78 680.65,260.28 C670.23,254.46 656.52,249.25 643.72,246.24 C633.90,243.93 630.31,243.59 615.00,243.55 C596.03,243.50 584.83,245.26 569.58,250.69 C525.69,266.32 492.35,304.67 482.94,350.36 C481.93,355.24 480.86,359.47 480.56,359.78 C480.25,360.08 480.00,357.90 480.00,354.92 ZM 556.00 357.06 C547.70,354.53 539.53,348.01 533.35,338.99 C528.52,331.93 518.69,312.97 519.47,312.20 C519.85,311.81 525.42,311.50 531.83,311.50 C545.08,311.50 548.47,312.69 555.20,319.67 C558.60,323.20 563.42,331.92 562.48,332.85 C562.26,333.07 557.90,330.57 552.79,327.28 C532.36,314.13 532.12,314.16 545.60,328.18 C556.23,339.23 568.00,354.42 568.00,357.08 C568.00,358.17 559.58,358.16 556.00,357.06 ZM 651.67 350.27 C650.99,349.17 659.30,335.33 669.40,320.75 C673.12,315.39 675.83,311.00 675.43,311.00 C674.26,311.00 656.43,325.75 647.96,333.72 C643.71,337.72 639.95,341.00 639.61,341.00 C638.33,341.00 639.07,326.14 640.58,321.72 C644.09,311.43 654.72,306.01 672.94,305.23 C683.64,304.77 700.46,306.32 701.41,307.85 C702.11,309.00 682.09,336.36 677.22,340.91 C674.62,343.33 670.17,346.39 667.33,347.70 C661.61,350.33 652.62,351.81 651.67,350.27 ZM 603.20 355.37 C597.48,352.48 595.47,345.86 598.51,339.98 C600.46,336.20 602.83,335.00 608.33,335.00 C612.19,335.00 613.21,335.48 615.90,338.53 C620.16,343.40 620.12,347.83 615.75,352.52 C611.83,356.72 607.73,357.65 603.20,355.37 Z" fill="rgb(254,254,254)"/>
</g>
</svg>