<svg width="78" height="26" viewBox="0 0 78 26" fill="none" xmlns="http://www.w3.org/2000/svg">
<path d="M1.43796e-05 21.5108L2.80846 19.8751C4.04294 21.6857 5.64777 22.591 7.62294 22.591C8.58995 22.591 9.35121 22.4058 9.90673 22.0354C10.4828 21.6445 10.7709 21.1302 10.7709 20.4923C10.7709 19.978 10.5343 19.5253 10.061 19.1344C9.6084 18.7435 9.12489 18.4554 8.61052 18.2703C8.09616 18.0645 7.32461 17.7971 6.29587 17.4679C6.1107 17.4061 5.97696 17.365 5.89466 17.3444C5.15398 17.0975 4.52645 16.8609 4.01208 16.6346C3.51829 16.3877 2.99363 16.0688 2.43812 15.6779C1.8826 15.2664 1.46082 14.7623 1.17277 14.1656C0.884726 13.5484 0.740703 12.8386 0.740703 12.0361C0.740703 10.4725 1.39909 9.21741 2.71587 8.27097C4.03265 7.32454 5.66834 6.85132 7.62294 6.85132C9.08374 6.85132 10.4622 7.24224 11.7585 8.02408C13.0547 8.78534 14.0217 9.76264 14.6595 10.956L12.0671 12.5299C10.8532 10.8634 9.38207 10.0301 7.6538 10.0301C6.70736 10.0301 5.97696 10.2256 5.4626 10.6165C4.9688 10.9868 4.72191 11.4806 4.72191 12.0979C4.72191 12.6122 4.93794 13.0752 5.37001 13.4867C5.82265 13.8776 6.28558 14.1656 6.7588 14.3508C7.23202 14.536 7.9007 14.7726 8.76483 15.0606C8.99116 15.1223 9.15575 15.1738 9.25863 15.2149C12.9209 16.3877 14.7521 18.1571 14.7521 20.5232C14.7521 21.984 14.1348 23.2288 12.9003 24.2575C11.6864 25.2657 9.95817 25.7698 7.71552 25.7698C5.98725 25.7698 4.44415 25.3891 3.08622 24.6279C1.74886 23.8666 0.720129 22.8276 1.43796e-05 21.5108ZM18.1469 25.2142V-5.39497e-05H22.0355V25.2142H18.1469ZM29.5041 20.2146C29.5041 20.873 29.7613 21.4285 30.2757 21.8811C30.8106 22.3132 31.5102 22.5292 32.3743 22.5292C33.6088 22.5292 34.6581 22.1177 35.5222 21.2948C36.4069 20.4718 36.8493 19.3916 36.8493 18.0542V16.4186C35.9029 16.6449 34.761 16.8609 33.4236 17.0667C30.8106 17.4781 29.5041 18.5275 29.5041 20.2146ZM25.5538 20.5541C25.5538 17.2004 28.0433 15.1532 33.0224 14.4125C34.833 14.145 36.1086 13.8982 36.8493 13.6718V12.7151C36.8493 11.851 36.5407 11.172 35.9234 10.6782C35.3062 10.1844 34.4832 9.93752 33.4545 9.93752C31.4999 9.93752 29.8127 10.7399 28.3931 12.3448L26.0167 10.3079C26.9426 9.21741 28.0433 8.37385 29.319 7.77718C30.6152 7.15994 31.9731 6.85132 33.3927 6.85132C36.0469 6.85132 37.9398 7.49942 39.0714 8.79563C40.203 10.0713 40.7688 11.8613 40.7688 14.1656V25.2142H36.9727V22.9922C36.6024 23.7534 35.9543 24.4118 35.0284 24.9673C34.1231 25.5023 33.0533 25.7698 31.8188 25.7698C29.8642 25.7698 28.3314 25.2862 27.2203 24.3192C26.1093 23.3522 25.5538 22.0972 25.5538 20.5541ZM43.7624 16.326C43.7624 13.4661 44.5237 11.172 46.0462 9.44373C47.5893 7.71546 49.5747 6.85132 52.0026 6.85132C53.772 6.85132 55.2636 7.38626 56.4776 8.45615C57.6915 9.52603 58.4527 10.7502 58.7613 12.1287L55.4282 13.0546C55.1813 12.2728 54.7596 11.6041 54.1629 11.0486C53.5662 10.4725 52.8564 10.1844 52.0334 10.1844C50.6961 10.1844 49.6468 10.7708 48.8855 11.9436C48.1448 13.1163 47.7745 14.5771 47.7745 16.326C47.7745 18.26 48.1757 19.7619 48.9781 20.8318C49.7805 21.9017 50.7989 22.4366 52.0334 22.4366C52.9387 22.4366 53.7308 22.128 54.4098 21.5108C55.1093 20.873 55.5928 20.1529 55.8603 19.3504L59.1934 20.3072C58.8025 21.7474 57.9486 23.023 56.6319 24.1341C55.3151 25.2245 53.772 25.7698 52.0026 25.7698C49.5747 25.7698 47.5893 24.9159 46.0462 23.2082C44.5237 21.4799 43.7624 19.1858 43.7624 16.326ZM62.1253 25.2142V-5.39497e-05H66.0139V14.5051L72.3406 7.40684H77.2477L70.6741 14.6594L77.6489 25.2142H73.0813L68.1434 17.4061L66.0139 19.7517V25.2142H62.1253Z" fill="#C4C4C4"/>
</svg>
